# xmcd
#
# Track frame offsets: 
#        170
#        13267
#        25880
#        37985
#        48987
#        61107
#        71647
#        84137
#        96565
#        109632
#        122272
#        133570
#        146027
#        159247
#        170662
#        183627
#        196245
#        208275
#        219450
#        230180
#        242207
#        254265
#        264487
#        274160
#        286577
#
# Disc length: 3949 seconds
#
# Revision: 2
# Processed by: cddbd v1.5.2PL0 Copyright (c) Steve Scherf et al.
# Submitted via: ExactAudioCopy v0.99pb5
#
DISCID=6d0f6b19
DTITLE=Mary Wells - The Ultimate Collection
DYEAR=1998
DGENRE=
TTITLE0=Bye Bye Baby
TTITLE1=I Don't Want To Take A Chance
TTITLE2=Strange Love
TTITLE3=The One Who Really Loves You
TTITLE4=You Beat Me To The Punch
TTITLE5=Old Love(Let's Try Again)
TTITLE6=Two Lovers
TTITLE7=Operator
TTITLE8=Laughing Boy
TTITLE9=Two Wrongs Don't Make A Right
TTITLE10=Goodbye And Good Luck
TTITLE11=Your Old Stand By
TTITLE12=What Love Has Joined Together
TTITLE13=You Lost The Sweetest Boy
TTITLE14=Whats Easy For Two Is So Hard For One
TTITLE15=My Guy
TTITLE16=Oh Little Boy(What Did You Do To Me)
TTITLE17=Once Upon A Time(Duet With Marvin Gaye)
TTITLE18=What's The Matter With You Baby(Duet With Marvin Gaye)
TTITLE19=Whisper You Love Me Boy
TTITLE20=I'll Be Available
TTITLE21=When I'm Gone
TTITLE22=Use Your Head
TTITLE23=Never, Never Leave Me
TTITLE24=Dear Lover
EXTD=
EXTT0=
EXTT1=
EXTT2=
EXTT3=
EXTT4=
EXTT5=
EXTT6=
EXTT7=
EXTT8=
EXTT9=
EXTT10=
EXTT11=
EXTT12=
EXTT13=
EXTT14=
EXTT15=
EXTT16=
EXTT17=
EXTT18=
EXTT19=
EXTT20=
EXTT21=
EXTT22=
EXTT23=
EXTT24=
PLAYORDER=
